<svg width="193" height="10" viewBox="0 0 193 10" fill="none" xmlns="http://www.w3.org/2000/svg">
<path d="M0.210938 0.597656H5.03906V1.70508H1.37695V4.00781H4.64062V5.10938H1.37695V7.89844H5.03906V9H0.210938V0.597656ZM15.9609 9H14.5957L12.3867 5.67773L10.1777 9H8.83594L11.7129 4.66992L9.01172 0.597656H10.3945L12.3984 3.62109L14.4141 0.597656H15.7676L13.084 4.64648L15.9609 9ZM19.9922 9V0.597656H21.375L24.375 7.30664L27.4453 0.597656H28.623V9H27.457V2.89453L24.7207 9H23.8711L21.1582 2.89453V9H19.9922ZM39.0645 9L38.332 7.14258H34.5645L33.832 9H32.6133L35.959 0.597656H36.9551L40.3242 9H39.0645ZM35.0098 6.03516H37.9043L36.4629 2.34961L35.0098 6.03516ZM50.5254 9H49.1367L46.9043 5.50781H45.4746V9H44.3086V0.597656H47.4082C48.1152 0.597656 48.7129 0.832031 49.2012 1.30078C49.6934 1.76953 49.9395 2.34766 49.9395 3.03516C49.9395 3.64062 49.7793 4.15625 49.459 4.58203C49.1387 5.00391 48.707 5.28516 48.1641 5.42578L50.5254 9ZM45.4629 1.70508L45.4746 4.40625H47.3848C47.7871 4.40625 48.1191 4.27734 48.3809 4.01953C48.6426 3.75781 48.7734 3.42969 48.7734 3.03516C48.7734 2.65234 48.6426 2.33594 48.3809 2.08594C48.1191 1.83203 47.7871 1.70508 47.3848 1.70508H45.4629ZM61.0898 9H59.5547L55.752 4.83398V9H54.5977V0.597656H55.752V4.3418L59.2676 0.597656H60.7441L56.9766 4.58203L61.0898 9ZM76.9219 0.597656V1.70508H74.2617V9H73.0957V1.70508H70.4297V0.597656H76.9219ZM81.0938 0.597656H85.9219V1.70508H82.2598V4.00781H85.5234V5.10938H82.2598V7.89844H85.9219V9H81.0938V0.597656ZM93.7969 9.11719C93.0156 9.11719 92.3027 8.92773 91.6582 8.54883C91.0176 8.16992 90.5137 7.64844 90.1465 6.98438C89.7793 6.32031 89.5957 5.58398 89.5957 4.77539C89.5957 3.97852 89.7793 3.25195 90.1465 2.5957C90.5137 1.93945 91.0176 1.42383 91.6582 1.04883C92.3027 0.669922 93.0156 0.480469 93.7969 0.480469C94.7461 0.480469 95.5859 0.755859 96.3164 1.30664C97.0469 1.85352 97.4863 2.54688 97.6348 3.38672H96.3516C96.207 2.85938 95.8965 2.42969 95.4199 2.09766C94.9473 1.76172 94.4062 1.59375 93.7969 1.59375C93.2383 1.59375 92.7285 1.73438 92.2676 2.01562C91.8066 2.29297 91.4434 2.67578 91.1777 3.16406C90.916 3.65234 90.7852 4.18945 90.7852 4.77539C90.7852 5.68555 91.0742 6.45117 91.6523 7.07227C92.2305 7.69336 92.9453 8.00391 93.7969 8.00391C94.418 8.00391 94.9668 7.82812 95.4434 7.47656C95.9199 7.12109 96.2266 6.66406 96.3633 6.10547H97.6582C97.4863 6.99609 97.041 7.7207 96.3223 8.2793C95.6074 8.83789 94.7656 9.11719 93.7969 9.11719ZM107.596 0.597656H108.756V9H107.596V5.19727H103.201V9H102.035V0.597656H103.201V4.08984H107.596V0.597656ZM113.461 0.597656H114.51L118.852 6.81445V0.597656H120.006V9H118.98L114.627 2.79492V9H113.461V0.597656ZM128.66 0.480469C129.25 0.480469 129.807 0.591797 130.33 0.814453C130.857 1.0332 131.309 1.33398 131.684 1.7168C132.062 2.0957 132.361 2.55078 132.58 3.08203C132.799 3.61328 132.908 4.17773 132.908 4.77539C132.908 5.38086 132.799 5.95312 132.58 6.49219C132.361 7.02734 132.062 7.48828 131.684 7.875C131.309 8.25781 130.857 8.56055 130.33 8.7832C129.807 9.00586 129.25 9.11719 128.66 9.11719C128.066 9.11719 127.506 9.00586 126.979 8.7832C126.455 8.56055 126.006 8.25781 125.631 7.875C125.256 7.48828 124.959 7.02734 124.74 6.49219C124.521 5.95312 124.412 5.38086 124.412 4.77539C124.412 3.97852 124.596 3.25195 124.963 2.5957C125.334 1.93945 125.844 1.42383 126.492 1.04883C127.145 0.669922 127.867 0.480469 128.66 0.480469ZM130.213 2.01562C129.744 1.73438 129.227 1.59375 128.66 1.59375C128.094 1.59375 127.576 1.73438 127.107 2.01562C126.639 2.29297 126.27 2.67578 126 3.16406C125.734 3.65234 125.602 4.18945 125.602 4.77539C125.602 5.68555 125.895 6.45117 126.48 7.07227C127.07 7.69336 127.797 8.00391 128.66 8.00391C129.523 8.00391 130.248 7.69336 130.834 7.07227C131.424 6.45117 131.719 5.68555 131.719 4.77539C131.719 4.18945 131.584 3.65234 131.314 3.16406C131.049 2.67578 130.682 2.29297 130.213 2.01562ZM137.297 0.597656H138.463V7.89844H142.594V9H137.297V0.597656ZM150.234 0.480469C150.824 0.480469 151.381 0.591797 151.904 0.814453C152.432 1.0332 152.883 1.33398 153.258 1.7168C153.637 2.0957 153.936 2.55078 154.154 3.08203C154.373 3.61328 154.482 4.17773 154.482 4.77539C154.482 5.38086 154.373 5.95312 154.154 6.49219C153.936 7.02734 153.637 7.48828 153.258 7.875C152.883 8.25781 152.432 8.56055 151.904 8.7832C151.381 9.00586 150.824 9.11719 150.234 9.11719C149.641 9.11719 149.08 9.00586 148.553 8.7832C148.029 8.56055 147.58 8.25781 147.205 7.875C146.83 7.48828 146.533 7.02734 146.314 6.49219C146.096 5.95312 145.986 5.38086 145.986 4.77539C145.986 3.97852 146.17 3.25195 146.537 2.5957C146.908 1.93945 147.418 1.42383 148.066 1.04883C148.719 0.669922 149.441 0.480469 150.234 0.480469ZM151.787 2.01562C151.318 1.73438 150.801 1.59375 150.234 1.59375C149.668 1.59375 149.15 1.73438 148.682 2.01562C148.213 2.29297 147.844 2.67578 147.574 3.16406C147.309 3.65234 147.176 4.18945 147.176 4.77539C147.176 5.68555 147.469 6.45117 148.055 7.07227C148.645 7.69336 149.371 8.00391 150.234 8.00391C151.098 8.00391 151.822 7.69336 152.408 7.07227C152.998 6.45117 153.293 5.68555 153.293 4.77539C153.293 4.18945 153.158 3.65234 152.889 3.16406C152.623 2.67578 152.256 2.29297 151.787 2.01562ZM162.92 5.44922V4.3418H166.623V7.21289C166.283 7.79883 165.77 8.26367 165.082 8.60742C164.398 8.94727 163.633 9.11719 162.785 9.11719C162.191 9.11719 161.633 9.00586 161.109 8.7832C160.586 8.55664 160.137 8.25195 159.762 7.86914C159.391 7.48242 159.098 7.01953 158.883 6.48047C158.668 5.94141 158.561 5.36914 158.561 4.76367C158.561 4.1582 158.668 3.58984 158.883 3.05859C159.098 2.52734 159.391 2.07422 159.762 1.69922C160.137 1.32031 160.584 1.02344 161.104 0.808594C161.623 0.589844 162.18 0.480469 162.773 0.480469C163.738 0.480469 164.584 0.755859 165.311 1.30664C166.041 1.85352 166.479 2.5293 166.623 3.33398H165.328C165.176 2.81055 164.863 2.39062 164.391 2.07422C163.918 1.75391 163.379 1.59375 162.773 1.59375C161.895 1.59375 161.17 1.89258 160.6 2.49023C160.033 3.08789 159.75 3.8457 159.75 4.76367C159.75 5.69336 160.043 6.4668 160.629 7.08398C161.215 7.69727 161.957 8.00391 162.855 8.00391C163.43 8.00391 163.945 7.89844 164.402 7.6875C164.859 7.47656 165.217 7.17773 165.475 6.79102V5.44922H162.92ZM171.188 0.597656H172.354V9H171.188V0.597656ZM177.059 0.597656H181.887V1.70508H178.225V4.00781H181.488V5.10938H178.225V7.89844H181.887V9H177.059V0.597656ZM189.152 9.11719C188.258 9.11719 187.521 8.85742 186.943 8.33789C186.365 7.81445 186.076 7.15039 186.076 6.3457H187.219C187.219 6.8418 187.398 7.24609 187.758 7.55859C188.121 7.87109 188.586 8.02734 189.152 8.02734C189.684 8.02734 190.119 7.90234 190.459 7.65234C190.803 7.39844 190.975 7.07227 190.975 6.67383C190.975 6.44336 190.92 6.24414 190.811 6.07617C190.701 5.9043 190.555 5.76758 190.371 5.66602C190.188 5.56055 189.977 5.46875 189.738 5.39062C189.5 5.30859 189.248 5.23438 188.982 5.16797C188.717 5.10156 188.451 5.03125 188.186 4.95703C187.924 4.88281 187.674 4.78906 187.436 4.67578C187.197 4.55859 186.986 4.42188 186.803 4.26562C186.619 4.10938 186.473 3.90625 186.363 3.65625C186.254 3.40234 186.199 3.11133 186.199 2.7832C186.199 2.11523 186.463 1.56445 186.99 1.13086C187.521 0.697266 188.189 0.480469 188.994 0.480469C189.889 0.480469 190.59 0.722656 191.098 1.20703C191.605 1.6875 191.859 2.28906 191.859 3.01172H190.676C190.664 2.59375 190.5 2.25 190.184 1.98047C189.867 1.70703 189.459 1.57031 188.959 1.57031C188.479 1.57031 188.086 1.68359 187.781 1.91016C187.477 2.13281 187.324 2.42383 187.324 2.7832C187.324 2.99414 187.379 3.17578 187.488 3.32812C187.598 3.48047 187.744 3.60352 187.928 3.69727C188.115 3.79102 188.328 3.87305 188.566 3.94336C188.809 4.01367 189.062 4.08203 189.328 4.14844C189.594 4.21094 189.857 4.2793 190.119 4.35352C190.385 4.42773 190.637 4.52734 190.875 4.65234C191.117 4.77344 191.33 4.91797 191.514 5.08594C191.701 5.25391 191.85 5.47461 191.959 5.74805C192.068 6.01758 192.123 6.32617 192.123 6.67383C192.123 7.00195 192.051 7.31445 191.906 7.61133C191.766 7.9082 191.568 8.16797 191.314 8.39062C191.061 8.61328 190.746 8.79102 190.371 8.92383C189.996 9.05273 189.59 9.11719 189.152 9.11719Z" fill="black"/>
</svg>
