<svg width="64" height="64" viewBox="0 0 64 64" fill="none" xmlns="http://www.w3.org/2000/svg">
<circle cx="32" cy="32" r="32" fill="#F4F4F9"/>
<path d="M24.05 41C23.8833 41 23.7083 40.996 23.525 40.988C23.3417 40.9793 23.1667 40.9667 23 40.95V35.1L28 34.1L30.9 37C32.1667 36.2333 33.3293 35.325 34.388 34.275C35.446 33.225 36.325 32.1 37.025 30.9L34.175 28.025L35.1 23H40.95C40.9833 23.1667 41 23.3417 41 23.525V24.05C41 26.2 40.5207 28.2957 39.562 30.337C38.604 32.379 37.3373 34.1917 35.762 35.775C34.1873 37.3583 32.3793 38.625 30.338 39.575C28.296 40.525 26.2 41 24.05 41Z" fill="#F26419"/>
</svg>
