<svg width="64" height="64" viewBox="0 0 64 64" fill="none" xmlns="http://www.w3.org/2000/svg">
<circle cx="32" cy="32" r="32" fill="#F4F4F9"/>
<path d="M31 42.9501V40.9501C28.9167 40.7167 27.1294 39.8544 25.638 38.3631C24.146 36.8711 23.2834 35.0834 23.05 33H21.05V31H23.05C23.2834 28.9167 24.146 27.129 25.638 25.637C27.1294 24.1457 28.9167 23.2834 31 23.05V21.05H33V23.05C35.0834 23.2834 36.8711 24.1457 38.3631 25.637C39.8544 27.129 40.7167 28.9167 40.9501 31H42.9501V33H40.9501C40.7167 35.0834 39.8544 36.8711 38.3631 38.3631C36.8711 39.8544 35.0834 40.7167 33 40.9501V42.9501H31ZM32 39C33.9334 39 35.5834 38.3167 36.95 36.95C38.3167 35.5834 39 33.9334 39 32C39 30.0667 38.3167 28.4167 36.95 27.05C35.5834 25.6834 33.9334 25 32 25C30.0667 25 28.4167 25.6834 27.05 27.05C25.6834 28.4167 25 30.0667 25 32C25 33.9334 25.6834 35.5834 27.05 36.95C28.4167 38.3167 30.0667 39 32 39ZM32 36C30.9 36 29.9584 35.6084 29.175 34.825C28.3917 34.0417 28 33.1 28 32C28 30.9 28.3917 29.9584 29.175 29.175C29.9584 28.3917 30.9 28 32 28C33.1 28 34.0417 28.3917 34.825 29.175C35.6084 29.9584 36 30.9 36 32C36 33.1 35.6084 34.0417 34.825 34.825C34.0417 35.6084 33.1 36 32 36Z" fill="#F26419"/>
</svg>
