<svg width="170" height="54" viewBox="0 0 170 54" fill="none" xmlns="http://www.w3.org/2000/svg">
<path d="M27.3277 48.7725C27.3277 48.5299 27.366 48.3 27.4554 48.0829C27.5448 47.8786 27.6725 47.6871 27.8513 47.521C28.0173 47.355 28.2089 47.2273 28.426 47.1379C28.643 47.0486 28.8857 47.0102 29.1411 47.0102C29.2815 47.0102 29.4348 47.0358 29.6263 47.0741C29.8051 47.1252 29.9967 47.2018 30.1882 47.3295C30.3798 47.4444 30.5585 47.6232 30.699 47.8658C30.8522 48.1085 30.9416 48.4022 30.9672 48.7725H29.7285C29.703 48.5682 29.6263 48.4149 29.5114 48.3128C29.3965 48.2106 29.2688 48.1595 29.1155 48.1595C28.9495 48.1595 28.7963 48.2234 28.6686 48.3256C28.5409 48.4405 28.477 48.581 28.477 48.747C28.477 48.7853 28.477 48.8364 28.4898 48.9002C28.5537 49.0917 28.7324 49.2705 29.0389 49.4238C29.3454 49.577 29.6646 49.7302 29.9839 49.8835C30.3031 50.0367 30.5713 50.241 30.7756 50.4837C30.9927 50.7391 31.0949 51.0839 31.0949 51.5053C31.0949 51.8373 31.031 52.1182 30.9161 52.3609C30.7884 52.6035 30.6224 52.795 30.4308 52.9483C30.2265 53.1015 30.0094 53.2165 29.7668 53.2931C29.5369 53.3569 29.3071 53.3952 29.0772 53.3952C28.7069 53.3952 28.3749 53.3186 28.0684 53.1654C27.7747 53.0121 27.5448 52.795 27.366 52.5141C27.1745 52.2204 27.0851 51.8884 27.0596 51.5053H28.2983C28.311 51.7734 28.4004 51.965 28.5537 52.0927C28.7069 52.2332 28.8857 52.297 29.1028 52.297C29.3071 52.297 29.4731 52.2459 29.6391 52.1438C29.7923 52.0544 29.8945 51.9267 29.92 51.7607C29.9328 51.6841 29.9456 51.6074 29.9456 51.5308C29.9456 51.2371 29.8562 51.0456 29.6774 50.9306C29.4859 50.8157 29.1794 50.6752 28.7197 50.4964C28.2727 50.3177 27.9279 50.1006 27.6981 49.8579C27.4554 49.6153 27.3405 49.2578 27.3277 48.7725Z" fill="#06113C"/>
<path d="M32.7422 49.3598C33.2913 48.8235 33.9042 48.5553 34.5427 48.5553C34.7598 48.5553 34.9514 48.5936 35.1429 48.6447C35.3217 48.6958 35.5005 48.7596 35.6665 48.849C35.8197 48.9384 35.973 49.0406 36.1262 49.181C36.2795 49.3087 36.4072 49.462 36.5093 49.6152C36.8158 50.0366 36.969 50.4836 36.969 50.9816C36.969 51.2625 36.918 51.5563 36.8158 51.8244C36.7264 52.1054 36.5732 52.3735 36.3816 52.6162C36.2667 52.7694 36.1135 52.8971 35.9347 53.012C35.7559 53.1142 35.5516 53.2036 35.3345 53.2547C35.1046 53.3057 34.8748 53.344 34.6449 53.344C34.4023 53.344 34.1596 53.3057 33.917 53.2547C33.6872 53.1908 33.4573 53.1014 33.253 52.9865C33.0487 52.8588 32.8699 52.7183 32.7294 52.5523C32.3208 52.0415 32.1165 51.5052 32.1165 50.9305C32.1165 50.3686 32.3208 49.8578 32.7422 49.3598ZM33.585 50.0749C33.3551 50.3431 33.2402 50.6496 33.2402 51.0071C33.2402 51.3392 33.3551 51.6456 33.585 51.901C33.8532 52.2203 34.1724 52.3735 34.5427 52.3735C34.7471 52.3735 34.9386 52.3224 35.1302 52.2331C35.3089 52.1437 35.4494 52.0287 35.5388 51.901C35.7304 51.6329 35.8325 51.3392 35.8325 50.9944C35.8325 50.8284 35.807 50.6751 35.7559 50.5347C35.7048 50.3814 35.6282 50.2537 35.5388 50.1388C35.2579 49.8323 34.9131 49.6663 34.5044 49.6663C34.1341 49.6663 33.8276 49.8068 33.585 50.0749Z" fill="#06113C"/>
<path d="M40.0471 47.1378H41.222L42.5883 49.9472L43.9547 47.1378H45.1296L43.1758 50.9816V53.2674H42.0009V50.9816L40.0471 47.1378Z" fill="#06113C"/>
<path d="M45.7161 49.3598C46.2779 48.8235 46.8781 48.5553 47.5294 48.5553C47.7337 48.5553 47.938 48.5936 48.1168 48.6447C48.3084 48.6958 48.4871 48.7596 48.6404 48.849C48.8064 48.9384 48.9596 49.0406 49.1129 49.181C49.2533 49.3087 49.381 49.462 49.496 49.6152C49.8024 50.0366 49.9557 50.4836 49.9557 50.9816C49.9557 51.2625 49.9046 51.5563 49.8024 51.8244C49.7003 52.1054 49.5598 52.3735 49.3683 52.6162C49.2533 52.7694 49.1001 52.8971 48.9213 53.012C48.7425 53.1142 48.5382 53.2036 48.3084 53.2547C48.0913 53.3057 47.8614 53.344 47.6316 53.344C47.3889 53.344 47.1463 53.3057 46.9037 53.2547C46.661 53.1908 46.4439 53.1014 46.2396 52.9865C46.0225 52.8588 45.8565 52.7183 45.7161 52.5523C45.3074 52.0415 45.0903 51.5052 45.0903 50.9305C45.0903 50.3686 45.3074 49.8578 45.7161 49.3598ZM46.5716 50.0749C46.3418 50.3431 46.2269 50.6496 46.2269 51.0071C46.2269 51.3392 46.3418 51.6456 46.5716 51.901C46.827 52.2203 47.1463 52.3735 47.5294 52.3735C47.7337 52.3735 47.9253 52.3224 48.104 52.2331C48.2956 52.1437 48.4361 52.0287 48.5255 51.901C48.717 51.6329 48.8192 51.3392 48.8192 50.9944C48.8192 50.8284 48.7936 50.6751 48.7425 50.5347C48.6915 50.3814 48.6148 50.2537 48.5255 50.1388C48.2445 49.8323 47.8997 49.6663 47.4911 49.6663C47.108 49.6663 46.8143 49.8068 46.5716 50.0749Z" fill="#06113C"/>
<path d="M51.0798 51.1732V48.632H52.1908V51.1732C52.1908 51.5435 52.2802 51.8245 52.4718 52.0416C52.6633 52.2587 52.8804 52.3736 53.1358 52.3736C53.289 52.3736 53.4295 52.3225 53.57 52.2331C53.6977 52.1565 53.7998 52.016 53.8892 51.8373C53.9658 51.6585 54.0042 51.4286 54.0042 51.1732V48.632H55.179V53.2675H54.1957V52.8078C54.0042 53.0249 53.7871 53.1909 53.5572 53.3058C53.3273 53.4207 53.0847 53.4718 52.8549 53.4718C52.625 53.4718 52.3951 53.4207 52.1781 53.3186C51.9737 53.2164 51.7822 53.0504 51.6162 52.8588C51.4502 52.6545 51.3097 52.4119 51.2203 52.1182C51.1309 51.8372 51.0798 51.518 51.0798 51.1732Z" fill="#06113C"/>
<path d="M58.4482 48.185V47.1378H61.8323V48.185H60.7341V53.2674H59.5592V48.185H58.4482Z" fill="#06113C"/>
<path d="M66.9273 50.0749V53.2674H65.8163V50.5985C65.8163 50.3686 65.778 50.1771 65.6886 50.0111C65.612 49.8578 65.497 49.7301 65.3693 49.6535C65.2289 49.5769 65.0756 49.5386 64.9224 49.5386C64.7564 49.5386 64.5904 49.5897 64.4499 49.6663C64.2967 49.7429 64.169 49.8706 64.0796 50.0366C63.9774 50.1899 63.9263 50.3814 63.9263 50.5985V53.2674H62.8281V47.1378H63.9263V49.0278C64.1179 48.849 64.3222 48.7213 64.5521 48.6319C64.7692 48.5425 64.9862 48.5042 65.2161 48.5042C65.5098 48.5042 65.7908 48.5681 66.0589 48.7085C66.3143 48.8362 66.5314 49.0278 66.6847 49.2704C66.8507 49.5003 66.9273 49.7684 66.9273 50.0749Z" fill="#06113C"/>
<path d="M68.3701 47.1378H69.4811V48.0573H68.3701V47.1378ZM68.3701 48.6319H69.4811V53.2674H68.3701V48.6319Z" fill="#06113C"/>
<path d="M70.8601 48.7086H71.8434V49.1045C71.9583 48.9257 72.1371 48.798 72.3542 48.7086C72.5841 48.6192 72.8394 48.5681 73.1076 48.5681C73.4269 48.5681 73.7206 48.632 74.0015 48.7597C74.2825 48.8746 74.5123 49.0662 74.6911 49.3216C74.8699 49.577 74.9593 49.8962 74.9593 50.2665V53.2675H73.8483V50.5347C73.8483 50.3432 73.81 50.1899 73.7078 50.0494C73.6184 49.909 73.4907 49.8068 73.3375 49.743C73.1715 49.6663 73.0182 49.628 72.8522 49.628C72.6096 49.628 72.4053 49.7047 72.2265 49.8579C72.0605 50.0111 71.9711 50.241 71.9711 50.5347V53.2675H70.8601V48.7086Z" fill="#06113C"/>
<path d="M77.45 47.1378V50.6623L78.8803 48.6319H80.2466L78.561 50.8539L80.5148 53.2674H79.0207L77.45 51.1093V53.2674H76.3518V47.1378H77.45Z" fill="#06113C"/>
<path d="M83.6436 47.1378H84.8184L86.1848 49.9472L87.5512 47.1378H88.726L86.7722 50.9816V53.2674H85.5974V50.9816L83.6436 47.1378Z" fill="#06113C"/>
<path d="M89.3259 49.3598C89.875 48.8235 90.488 48.5553 91.1393 48.5553C91.3436 48.5553 91.5351 48.5936 91.7267 48.6447C91.9182 48.6958 92.0842 48.7596 92.2502 48.849C92.4035 48.9384 92.5567 49.0406 92.71 49.181C92.8632 49.3087 92.9909 49.462 93.1058 49.6152C93.3995 50.0366 93.5528 50.4836 93.5528 50.9816C93.5528 51.2625 93.5145 51.5563 93.4123 51.8244C93.3102 52.1054 93.1569 52.3735 92.9781 52.6162C92.8504 52.7694 92.71 52.8971 92.5184 53.012C92.3396 53.1142 92.1353 53.2036 91.9182 53.2547C91.6884 53.3057 91.4585 53.344 91.2287 53.344C90.986 53.344 90.7434 53.3057 90.5008 53.2547C90.2709 53.1908 90.041 53.1014 89.8367 52.9865C89.6324 52.8588 89.4536 52.7183 89.3259 52.5523C88.9045 52.0415 88.7002 51.5052 88.7002 50.9305C88.7002 50.3686 88.9045 49.8578 89.3259 49.3598ZM90.1687 50.0749C89.9517 50.3431 89.8367 50.6496 89.8367 51.0071C89.8367 51.3392 89.9517 51.6456 90.1687 51.901C90.4369 52.2203 90.7562 52.3735 91.1265 52.3735C91.3308 52.3735 91.5224 52.3224 91.7139 52.2331C91.8927 52.1437 92.0332 52.0287 92.1225 51.901C92.3141 51.6329 92.4163 51.3392 92.4163 50.9944C92.4163 50.8284 92.3907 50.6751 92.3396 50.5347C92.2886 50.3814 92.2247 50.2537 92.1225 50.1388C91.8416 49.8323 91.4968 49.6663 91.0882 49.6663C90.7179 49.6663 90.4114 49.8068 90.1687 50.0749Z" fill="#06113C"/>
<path d="M94.6763 51.1732V48.632H95.7873V51.1732C95.7873 51.5435 95.8894 51.8245 96.081 52.0416C96.2725 52.2587 96.4896 52.3736 96.745 52.3736C96.8982 52.3736 97.0387 52.3225 97.1664 52.2331C97.2941 52.1565 97.409 52.016 97.4857 51.8373C97.5623 51.6585 97.6134 51.4286 97.6134 51.1732V48.632H98.7882V53.2675H97.8049V52.8078C97.6006 53.0249 97.3835 53.1909 97.1536 53.3058C96.9238 53.4207 96.6939 53.4718 96.4513 53.4718C96.2214 53.4718 96.0043 53.4207 95.7873 53.3186C95.5702 53.2164 95.3786 53.0504 95.2126 52.8588C95.0466 52.6545 94.9189 52.4119 94.8167 52.1182C94.7274 51.8372 94.6763 51.518 94.6763 51.1732Z" fill="#06113C"/>
<path d="M102.236 50.0749C102.262 49.8195 102.338 49.513 102.479 49.1682C102.619 48.8235 102.824 48.4914 103.092 48.1722C103.347 47.8529 103.666 47.5975 104.049 47.3805C104.433 47.1761 104.867 47.074 105.339 47.074H105.429C105.799 47.074 106.169 47.1506 106.565 47.3038C106.961 47.4698 107.319 47.6869 107.638 47.9806C107.957 48.2616 108.174 48.5936 108.302 48.9639H106.999C106.757 48.7085 106.501 48.517 106.246 48.3893C105.978 48.2616 105.71 48.1977 105.429 48.1977C105.084 48.1977 104.752 48.2999 104.445 48.4914C104.126 48.683 103.883 48.9384 103.692 49.2449C103.513 49.5513 103.411 49.8706 103.411 50.2026C103.411 50.5857 103.526 50.9433 103.743 51.2625C103.96 51.5818 104.254 51.8372 104.586 52.0159C104.931 52.2075 105.275 52.2969 105.62 52.2969C105.888 52.2969 106.118 52.2458 106.335 52.1436C106.54 52.0287 106.718 51.8627 106.872 51.6456H108.238C108.085 52.0415 107.842 52.3863 107.523 52.6544C107.191 52.9226 106.833 53.1142 106.45 53.2291C106.067 53.344 105.722 53.4079 105.403 53.4079C105.365 53.4079 105.314 53.4079 105.237 53.3951C104.828 53.3696 104.445 53.2674 104.075 53.1014C103.705 52.9354 103.385 52.7055 103.117 52.4374C102.849 52.1564 102.632 51.8116 102.479 51.4158C102.325 51.0071 102.236 50.5602 102.236 50.0749Z" fill="#06113C"/>
<path d="M109.285 50.9178C109.323 50.5092 109.4 50.1516 109.528 49.8324C109.668 49.5259 109.834 49.2833 110.039 49.0917C110.243 48.9002 110.473 48.7597 110.715 48.6575C110.958 48.5682 111.213 48.5298 111.482 48.5298C111.826 48.5298 112.146 48.6065 112.452 48.7469C112.759 48.9002 112.988 49.1045 113.129 49.3599V48.632H114.176V53.3313H113.129V52.7439C112.976 52.961 112.759 53.1398 112.465 53.2675C112.171 53.3952 111.877 53.4591 111.571 53.4591C111.239 53.4591 110.92 53.3952 110.639 53.2675C110.358 53.127 110.128 52.961 109.924 52.7312C109.719 52.5013 109.566 52.2331 109.451 51.9139C109.349 51.6074 109.285 51.2754 109.285 50.9178ZM111.763 52.3481C112.261 52.3225 112.618 52.1948 112.822 51.965C113.027 51.7223 113.129 51.4031 113.129 50.9817C113.129 50.7135 113.065 50.4837 112.95 50.2666C112.822 50.0622 112.644 49.8962 112.439 49.7813C112.235 49.6791 112.005 49.6153 111.763 49.6153C111.52 49.6153 111.303 49.6791 111.086 49.7813C110.881 49.8962 110.715 50.0622 110.588 50.2666C110.46 50.4837 110.396 50.7135 110.396 50.9817C110.396 51.2754 110.46 51.518 110.6 51.7223C110.728 51.9267 110.894 52.0927 111.111 52.1948C111.316 52.297 111.533 52.3481 111.763 52.3481Z" fill="#06113C"/>
<path d="M115.491 48.7086H116.475V49.1045C116.59 48.9257 116.768 48.798 116.998 48.7086C117.228 48.6192 117.471 48.5681 117.752 48.5681C118.058 48.5681 118.352 48.632 118.633 48.7597C118.914 48.8746 119.144 49.0662 119.335 49.3216C119.514 49.577 119.603 49.8962 119.603 50.2665V53.2675H118.492V50.5347C118.492 50.3432 118.441 50.1899 118.339 50.0494C118.25 49.909 118.122 49.8068 117.969 49.743C117.816 49.6663 117.65 49.628 117.484 49.628C117.241 49.628 117.037 49.7047 116.858 49.8579C116.692 50.0111 116.602 50.241 116.602 50.5347V53.2675H115.491V48.7086Z" fill="#06113C"/>
<path d="M123.052 50.0749C123.077 49.8195 123.154 49.513 123.294 49.1682C123.435 48.8235 123.639 48.4914 123.894 48.1722C124.162 47.8529 124.482 47.5975 124.865 47.3805C125.248 47.1761 125.669 47.074 126.155 47.074H126.244C126.602 47.074 126.985 47.1506 127.381 47.3038C127.776 47.4698 128.134 47.6869 128.453 47.9806C128.76 48.2616 128.99 48.5936 129.117 48.9639H127.815C127.572 48.7085 127.317 48.517 127.049 48.3893C126.793 48.2616 126.525 48.1977 126.244 48.1977C125.899 48.1977 125.567 48.2999 125.248 48.4914C124.941 48.683 124.686 48.9384 124.507 49.2449C124.316 49.5513 124.226 49.8706 124.226 50.2026C124.226 50.5857 124.341 50.9433 124.558 51.2625C124.775 51.5818 125.056 51.8372 125.401 52.0159C125.746 52.2075 126.091 52.2969 126.436 52.2969C126.691 52.2969 126.934 52.2458 127.151 52.1436C127.355 52.0287 127.534 51.8627 127.674 51.6456H129.053C128.9 52.0415 128.658 52.3863 128.338 52.6544C128.006 52.9226 127.649 53.1142 127.266 53.2291C126.883 53.344 126.538 53.4079 126.218 53.4079C126.18 53.4079 126.116 53.4079 126.052 53.3951C125.644 53.3696 125.248 53.2674 124.89 53.1014C124.52 52.9354 124.201 52.7055 123.933 52.4374C123.664 52.1564 123.447 51.8116 123.294 51.4158C123.128 51.0071 123.052 50.5602 123.052 50.0749Z" fill="#FF8C32"/>
<path d="M130.752 49.3598C131.314 48.8235 131.914 48.5553 132.565 48.5553C132.77 48.5553 132.974 48.5936 133.153 48.6447C133.344 48.6958 133.523 48.7596 133.676 48.849C133.842 48.9384 133.996 49.0406 134.136 49.181C134.289 49.3087 134.417 49.462 134.532 49.6152C134.838 50.0366 134.992 50.4836 134.992 50.9816C134.992 51.2625 134.94 51.5563 134.838 51.8244C134.736 52.1054 134.596 52.3735 134.404 52.6162C134.289 52.7694 134.136 52.8971 133.957 53.012C133.778 53.1142 133.574 53.2036 133.344 53.2547C133.127 53.3057 132.897 53.344 132.667 53.344C132.425 53.344 132.182 53.3057 131.94 53.2547C131.697 53.1908 131.48 53.1014 131.276 52.9865C131.058 52.8588 130.892 52.7183 130.752 52.5523C130.343 52.0415 130.126 51.5052 130.126 50.9305C130.126 50.3686 130.343 49.8578 130.752 49.3598ZM131.608 50.0749C131.378 50.3431 131.263 50.6496 131.263 51.0071C131.263 51.3392 131.378 51.6456 131.608 51.901C131.863 52.2203 132.182 52.3735 132.565 52.3735C132.77 52.3735 132.961 52.3224 133.14 52.2331C133.331 52.1437 133.459 52.0287 133.549 51.901C133.753 51.6329 133.842 51.3392 133.842 50.9944C133.842 50.8284 133.817 50.6751 133.778 50.5347C133.727 50.3814 133.651 50.2537 133.549 50.1388C133.268 49.8323 132.923 49.6663 132.514 49.6663C132.144 49.6663 131.837 49.8068 131.608 50.0749Z" fill="#FF8C32"/>
<path d="M139.626 49.0406V47.1378H140.737V53.2674H139.69V52.6161C139.537 52.8715 139.32 53.0759 139.013 53.2036C138.72 53.3313 138.439 53.3951 138.196 53.3951C137.8 53.3951 137.43 53.293 137.06 53.0759C136.702 52.8588 136.408 52.5651 136.178 52.1947C135.961 51.8244 135.846 51.4285 135.846 50.9816C135.846 50.4963 135.961 50.0622 136.191 49.6791C136.434 49.296 136.728 49.015 137.098 48.8107C137.468 48.6064 137.851 48.517 138.26 48.517C138.579 48.517 138.835 48.5553 139.013 48.6319C139.192 48.7085 139.396 48.8362 139.626 49.0406ZM137.021 50.9177C137.021 51.2114 137.085 51.4541 137.213 51.6584C137.341 51.8755 137.507 52.0287 137.698 52.1309C137.902 52.233 138.119 52.2841 138.337 52.2841C138.694 52.2841 138.988 52.1692 139.256 51.9393C139.511 51.6967 139.665 51.3647 139.69 50.9177C139.69 50.8922 139.69 50.8539 139.69 50.8156C139.69 50.5602 139.626 50.3559 139.511 50.1643C139.384 49.9855 139.218 49.8451 139.013 49.7429C138.809 49.6535 138.605 49.6024 138.375 49.6024C138.03 49.6024 137.724 49.7174 137.455 49.9472C137.2 50.1643 137.047 50.4963 137.021 50.9177Z" fill="#FF8C32"/>
<path d="M141.913 50.9178C141.913 50.573 142.002 50.2282 142.155 49.8579C142.321 49.5003 142.577 49.1939 142.934 48.9385C143.305 48.6958 143.764 48.5681 144.326 48.5681C144.786 48.5681 145.194 48.6703 145.565 48.8618C145.922 49.0534 146.203 49.3343 146.408 49.7174C146.599 50.0878 146.701 50.5347 146.701 51.0583C146.701 51.1987 146.701 51.352 146.676 51.5052H143.151C143.253 51.7606 143.419 51.9522 143.649 52.0926C143.879 52.2459 144.135 52.3097 144.403 52.3097C144.799 52.3097 145.118 52.1693 145.373 51.9011H146.548C146.459 52.1693 146.318 52.4247 146.127 52.6545C145.922 52.8844 145.68 53.0759 145.399 53.2164C145.105 53.3569 144.799 53.4335 144.467 53.459C144.441 53.459 144.428 53.459 144.403 53.459C144.39 53.459 144.377 53.459 144.364 53.459C144.032 53.459 143.713 53.3952 143.419 53.2675C143.113 53.127 142.858 52.9482 142.628 52.7184C142.398 52.5013 142.219 52.2331 142.091 51.9522C141.976 51.6712 141.913 51.3903 141.913 51.1094C141.913 51.02 141.913 50.9561 141.913 50.9178ZM144.403 49.6791C144.147 49.6791 143.93 49.7174 143.739 49.8068C143.547 49.8834 143.394 49.9984 143.279 50.1133C143.164 50.241 143.075 50.3815 143.024 50.5347H145.565C145.501 50.3048 145.373 50.1133 145.182 49.9345C145.003 49.7685 144.773 49.6791 144.505 49.6791C144.454 49.6791 144.416 49.6791 144.403 49.6791Z" fill="#FF8C32"/>
<path fill-rule="evenodd" clip-rule="evenodd" d="M18.376 8.66198L18.4526 1L0 14.2297V27.1912L18.4654 42.4513L18.4398 33.2952L2.78385 20.2954L18.376 8.66198Z" fill="#06113C"/>
<path fill-rule="evenodd" clip-rule="evenodd" d="M151.464 8.66198L151.388 1L169.84 14.2297V27.1912L151.375 42.4513L151.4 33.2952L167.056 20.2954L151.464 8.66198Z" fill="#06113C"/>
<path d="M42.6515 9.59415V15.5577H35.9472V8.62363C35.9472 8.02345 35.8578 7.60204 35.6918 7.34664C35.513 7.10401 35.2321 6.96354 34.8362 6.96354C34.185 6.96354 33.8657 7.51265 33.8657 8.62363V14.7532C33.8657 15.3917 33.9551 15.8897 34.1211 16.209C34.2999 16.5282 34.7085 16.8858 35.3726 17.2689L39.51 19.6441C40.3401 20.1166 40.9914 20.6402 41.4638 21.2276C41.9236 21.815 42.2428 22.4535 42.4088 23.1303C42.5748 23.8071 42.6515 24.6372 42.6515 25.6205V33.8571C42.6515 35.6832 42.5748 37.0879 42.4216 38.0329C42.2556 38.9906 41.9236 39.744 41.4 40.2931C40.8764 40.8423 40.1102 41.2126 39.1142 41.4041C38.1181 41.6084 36.6751 41.7106 34.8362 41.7106C33.0484 41.7106 31.6693 41.5957 30.686 41.3786C29.7027 41.1743 28.9493 40.8039 28.4129 40.2676C27.8766 39.744 27.519 38.9651 27.3403 37.969C27.1487 36.9602 27.0593 35.5938 27.0593 33.8571V25.1352H33.8657V34.751C33.8657 35.3384 33.9551 35.7598 34.1211 36.0407C34.2999 36.3217 34.5808 36.4622 34.9767 36.4622C35.628 36.4622 35.9472 35.8875 35.9472 34.751V26.3994C35.9472 25.7354 35.8578 25.2501 35.6918 24.9309C35.513 24.6244 35.1044 24.2924 34.4531 23.9348L30.1241 21.3936C28.9365 20.6912 28.132 19.8612 27.6978 18.8907C27.2764 17.9329 27.0593 16.707 27.0593 15.2257V9.59415C27.0593 7.85744 27.1615 6.47828 27.3658 5.44391C27.5574 4.42232 27.9149 3.64335 28.4513 3.10701C28.9748 2.58344 29.7282 2.21311 30.7243 2.02156C31.7076 1.81724 33.0995 1.71508 34.8873 1.71508C37.2753 1.71508 38.9865 1.9194 40.0464 2.31527C41.1063 2.71114 41.8086 3.43903 42.1407 4.51171C42.4854 5.57161 42.6515 7.27002 42.6515 9.59415Z" fill="#06113C"/>
<path d="M49.6111 1.97053H56.1621L57.9243 17.1668L59.5333 1.97053H65.8928L61.4361 25.4673V41.4169H54.4381V25.4673L49.6111 1.97053Z" fill="#06113C"/>
<path d="M71.8435 1.97053H85.2264V7.20621H81.9062V41.4169H75.1637V7.20621H71.8435V1.97053Z" fill="#06113C"/>
<path d="M91.1128 1.97053H97.6638L99.426 17.1668L101.035 1.97053H107.394L102.925 25.4673V41.4169H95.9271V25.4673L91.1128 1.97053Z" fill="#06113C"/>
<path d="M111.455 20.155C112.528 20.1294 113.396 19.8357 114.073 19.2866C114.737 18.7503 115.197 17.9968 115.414 17.0518C115.631 16.0941 115.746 14.4723 115.759 12.1737C115.772 9.86236 115.81 8.34274 115.874 7.61485C116.001 6.45278 116.219 5.52058 116.563 4.81823C116.895 4.11588 117.317 3.554 117.802 3.13259C118.3 2.71118 118.939 2.39193 119.705 2.17485C120.228 2.03438 121.084 1.97053 122.271 1.97053H123.421V5.22687H122.782C121.365 5.22687 120.42 5.49504 119.96 6.00583C119.5 6.51663 119.258 7.6787 119.258 9.46649C119.258 13.0804 119.181 15.3662 119.028 16.3112C118.785 17.7925 118.351 18.929 117.751 19.7335C117.138 20.5253 116.193 21.2404 114.89 21.8534C116.423 22.4919 117.534 23.4624 118.236 24.7649C118.913 26.0547 119.258 28.1873 119.258 31.1499C119.258 33.8443 119.271 35.4406 119.309 35.9514C119.424 36.8836 119.692 37.5349 120.139 37.9052C120.586 38.2883 121.467 38.4671 122.77 38.4671H123.421V41.7362H122.259C120.905 41.7362 119.922 41.6213 119.322 41.4042C118.44 41.0849 117.713 40.5741 117.125 39.859C116.551 39.1567 116.18 38.25 116.001 37.1645C115.823 36.0791 115.733 34.2913 115.72 31.8139C115.708 29.3366 115.593 27.6126 115.363 26.6676C115.146 25.7099 114.712 24.9692 114.048 24.4073C113.371 23.8582 112.515 23.5773 111.455 23.539V20.155Z" fill="#06113C"/>
<path d="M146.305 20.155V23.539C145.232 23.5773 144.364 23.8582 143.7 24.4073C143.023 24.9692 142.576 25.7099 142.359 26.6549C142.129 27.5998 142.014 29.2216 142.002 31.5202C141.989 33.8316 141.963 35.3384 141.899 36.0663C141.772 37.2412 141.542 38.1734 141.197 38.8757C140.865 39.5653 140.444 40.1272 139.946 40.5486C139.448 40.9572 138.809 41.2892 138.03 41.5063C137.507 41.6596 136.664 41.7362 135.463 41.7362H134.301V38.4671H134.953C136.383 38.4671 137.328 38.2117 137.8 37.6881C138.273 37.1773 138.503 36.0152 138.503 34.2147C138.503 30.7668 138.554 28.5831 138.669 27.6637C138.886 26.1313 139.333 24.9181 139.997 23.9987C140.673 23.0793 141.606 22.3769 142.832 21.8534C141.235 21.0999 140.099 20.0911 139.448 18.8524C138.784 17.601 138.464 15.4939 138.464 12.5313C138.464 9.83682 138.452 8.22781 138.413 7.70424C138.324 6.7848 138.056 6.1463 137.596 5.77597C137.149 5.41842 136.268 5.22687 134.953 5.22687H134.301V1.97053H135.463C136.817 1.97053 137.8 2.07269 138.4 2.30254C139.282 2.59625 140.009 3.10705 140.597 3.83494C141.172 4.53729 141.542 5.44396 141.721 6.54217C141.899 7.62762 141.989 9.41541 142.002 11.9056C142.014 14.3829 142.129 16.0941 142.359 17.0391C142.576 17.9841 143.023 18.7375 143.7 19.2866C144.364 19.8357 145.232 20.1294 146.305 20.155Z" fill="#06113C"/>
<path d="M111.455 20.155C112.528 20.1294 113.396 19.8357 114.073 19.2866C114.737 18.7503 115.197 17.9968 115.414 17.0518C115.631 16.0941 115.746 14.4723 115.759 12.1737C115.772 9.86236 115.81 8.34274 115.874 7.61485C116.001 6.45278 116.219 5.52058 116.563 4.81823C116.895 4.11588 117.317 3.554 117.802 3.13259C118.3 2.71118 118.939 2.39193 119.705 2.17485C120.228 2.03438 121.084 1.97053 122.271 1.97053H123.421V5.22687H122.782C121.365 5.22687 120.42 5.49504 119.96 6.00583C119.5 6.51663 119.258 7.6787 119.258 9.46649C119.258 13.0804 119.181 15.3662 119.028 16.3112C118.785 17.7925 118.351 18.929 117.751 19.7335C117.138 20.5253 116.193 21.2404 114.89 21.8534C116.423 22.4919 117.534 23.4624 118.236 24.7649C118.913 26.0547 119.258 28.1873 119.258 31.1499C119.258 33.8443 119.271 35.4406 119.309 35.9514C119.424 36.8836 119.692 37.5349 120.139 37.9052C120.586 38.2883 121.467 38.4671 122.77 38.4671H123.421V41.7362H122.259C120.905 41.7362 119.922 41.6213 119.322 41.4042C118.44 41.0849 117.713 40.5741 117.125 39.859C116.551 39.1567 116.18 38.25 116.001 37.1645C115.823 36.0791 115.733 34.2913 115.72 31.8139C115.708 29.3366 115.593 27.6126 115.363 26.6676C115.146 25.7099 114.712 24.9692 114.048 24.4073C113.371 23.8582 112.515 23.5773 111.455 23.539V20.155Z" fill="#FF8C32" stroke="#FF8C32" stroke-width="3.11669" stroke-miterlimit="2.61313"/>
<path d="M146.305 20.155V23.539C145.232 23.5773 144.364 23.8582 143.7 24.4073C143.023 24.9692 142.576 25.7099 142.359 26.6549C142.129 27.5998 142.014 29.2216 142.002 31.5202C141.989 33.8316 141.963 35.3384 141.899 36.0663C141.772 37.2412 141.542 38.1734 141.197 38.8757C140.865 39.5653 140.444 40.1272 139.946 40.5486C139.448 40.9572 138.809 41.2892 138.03 41.5063C137.507 41.6596 136.664 41.7362 135.463 41.7362H134.301V38.4671H134.953C136.383 38.4671 137.328 38.2117 137.8 37.6881C138.273 37.1773 138.503 36.0152 138.503 34.2147C138.503 30.7668 138.554 28.5831 138.669 27.6637C138.886 26.1313 139.333 24.9181 139.997 23.9987C140.673 23.0793 141.606 22.3769 142.832 21.8534C141.235 21.0999 140.099 20.0911 139.448 18.8524C138.784 17.601 138.464 15.4939 138.464 12.5313C138.464 9.83682 138.452 8.22781 138.413 7.70424C138.324 6.7848 138.056 6.1463 137.596 5.77597C137.149 5.41842 136.268 5.22687 134.953 5.22687H134.301V1.97053H135.463C136.817 1.97053 137.8 2.07269 138.4 2.30254C139.282 2.59625 140.009 3.10705 140.597 3.83494C141.172 4.53729 141.542 5.44396 141.721 6.54217C141.899 7.62762 141.989 9.41541 142.002 11.9056C142.014 14.3829 142.129 16.0941 142.359 17.0391C142.576 17.9841 143.023 18.7375 143.7 19.2866C144.364 19.8357 145.232 20.1294 146.305 20.155Z" fill="#FF8C32" stroke="#FF8C32" stroke-width="3.11669" stroke-miterlimit="2.61313"/>
</svg>
